<svg width="1200" height="1200" viewBox="0 0 1200 1200" fill="none" xmlns="http://www.w3.org/2000/svg">
<path d="M928.42 704.137C916.221 646.781 906.176 592.293 897.565 540.672C888.954 489.052 882.496 435.28 878.55 380.075C878.55 376.131 878.55 372.188 877.832 367.886C877.474 363.943 877.115 359.283 877.115 354.264C877.115 349.246 877.115 346.019 876.397 341.359C876.039 336.699 875.68 332.039 875.68 327.02H989.053V138.462H212.305V327.02H325.319C325.319 332.039 325.319 336.699 324.602 341.359C324.243 346.019 323.884 350.321 323.884 354.264C323.884 358.208 323.884 363.943 323.167 367.886C322.808 371.83 322.449 375.773 322.449 380.075C318.503 435.28 312.045 489.052 303.434 540.672C294.824 592.651 284.419 647.14 272.58 704.137H147.367V1061.54H324.602C317.068 953.637 333.93 838.208 378.777 725.288C454.478 534.578 593.324 392.263 749.032 325.228C745.086 330.605 741.139 335.982 737.193 341.718C723.559 362.151 712.079 384.376 702.392 408.753C675.125 477.939 792.803 550.709 807.154 613.443C779.169 568.992 618.797 541.389 580.767 546.408C516.905 554.653 475.646 646.423 486.409 753.607C486.409 756.833 487.127 759.701 487.486 762.928C493.943 813.473 510.806 857.924 533.409 890.904H703.468C792.444 890.904 864.558 962.957 864.558 1051.86V1061.54H1053.63V704.137H928.42ZM616.644 691.949C602.652 691.949 591.171 680.478 591.171 666.497C591.171 652.517 602.652 641.046 616.644 641.046C630.637 641.046 642.117 652.517 642.117 666.497C642.117 680.478 630.637 691.949 616.644 691.949Z" fill="#005356"/>
</svg>
