<svg width="1920" height="1920" viewBox="0 0 1920 1920" fill="none" xmlns="http://www.w3.org/2000/svg">
<g clip-path="url(#clip0_2709_80)">
<rect width="1920" height="1920" rx="482" fill="#052F04"/>
<g filter="url(#filter0_d_2709_80)">
<path d="M1730.53 960C1730.53 534.45 1385.55 189.474 960 189.474C534.45 189.474 189.474 534.45 189.474 960C189.474 1385.55 534.45 1730.53 960 1730.53V2381.05C175.174 2381.05 -461.053 1744.83 -461.053 960C-461.053 175.174 175.174 -461.053 960 -461.053C1744.83 -461.053 2381.05 175.174 2381.05 960C2381.05 1744.83 1744.83 2381.05 960 2381.05V1730.53C1385.55 1730.53 1730.53 1385.55 1730.53 960Z" fill="#6F9616"/>
</g>
<rect y="600" width="1920" height="720" fill="#CA300A"/>
<path d="M1058.63 980C1075.21 980 1092.19 982.62 1109.57 987.858C1127.11 992.902 1142.9 999.885 1156.93 1008.81C1152.3 1021.61 1147.44 1037.23 1142.34 1055.66C1141.38 1059.54 1140.58 1062.45 1139.95 1064.39C1131.81 1056.44 1119.54 1049.84 1103.11 1044.6C1086.69 1039.17 1072.18 1036.45 1059.59 1036.45C1044.44 1036.45 1034.23 1037.72 1028.97 1040.24C1023.71 1042.57 1021.08 1046.06 1021.08 1050.71C1021.08 1055.37 1024.67 1059.15 1031.84 1062.06C1039.18 1064.78 1049.7 1066.14 1063.41 1066.14C1097.21 1066.14 1121.77 1070.89 1137.08 1080.4C1152.38 1089.71 1160.04 1104.07 1160.04 1123.47C1160.04 1150.63 1151.9 1170.22 1135.64 1182.25C1119.38 1194.08 1094.74 1200 1061.74 1200C1044.04 1200 1026.02 1197.67 1007.69 1193.01C989.349 1188.16 972.846 1181.18 958.177 1172.06C963.598 1162.17 968.062 1152.95 971.57 1144.42C975.237 1135.88 978.746 1125.99 982.094 1114.74C993.415 1122.69 1006.57 1128.9 1021.56 1133.36C1036.54 1137.82 1050.5 1140.05 1063.41 1140.05C1076.65 1140.05 1085.97 1138.69 1091.39 1135.98C1096.82 1133.07 1099.53 1129.96 1099.53 1126.67C1099.53 1114.83 1084.7 1108.92 1055.04 1108.92C1022.51 1108.92 998.915 1104.84 984.246 1096.69C969.577 1088.35 962.242 1074.96 962.242 1056.53C962.242 1030.34 971.172 1011.04 989.03 998.625C1006.89 986.209 1030.09 980 1058.63 980Z" fill="white"/>
<path d="M731.553 1040.24H601.445V1070.79C609.577 1070.99 621.774 1071.08 638.038 1071.08C666.1 1071.08 694.641 1070.5 723.661 1069.34V1126.37C694.641 1125.02 664.027 1124.34 631.819 1124.34C618.426 1124.34 608.301 1124.44 601.445 1124.63V1197.09H545C546.276 1159.45 546.913 1124.24 546.913 1091.45C546.913 1058.67 546.276 1023.46 545 985.82H731.553V1040.24Z" fill="white"/>
<path d="M936.607 1038.49H807.215V1066.43C814.869 1066.62 826.19 1066.72 841.178 1066.72C866.53 1066.72 892.759 1066.14 919.865 1064.97V1115.03C892.759 1113.86 866.53 1113.28 841.178 1113.28C826.19 1113.28 814.869 1113.38 807.215 1113.57V1143.84C867.805 1143.45 911.733 1142.38 938.999 1140.63C937.883 1148.59 937.165 1156.83 936.846 1165.37C936.686 1173.71 936.607 1184.29 936.607 1197.09H750.772C752.047 1159.45 752.685 1124.24 752.685 1091.45C752.685 1058.67 752.047 1023.46 750.772 985.82H936.607V1038.49Z" fill="white"/>
<path d="M1375 1046.93C1349.97 1045.96 1325.65 1045.38 1302.05 1045.18V1197.09H1242.26V1045.18C1218.5 1045.38 1194.27 1045.96 1169.55 1046.93V985.82H1375V1046.93Z" fill="white"/>
<path fill-rule="evenodd" clip-rule="evenodd" d="M1481.52 720C1518.44 720 1545.44 729.687 1562.54 749.062C1579.8 768.437 1588.43 795.368 1588.43 829.855C1588.43 864.923 1579.88 892.048 1562.78 911.229C1545.68 930.41 1518.6 940 1481.52 940C1444.93 940 1418.01 930.41 1400.75 911.229C1383.49 891.854 1374.86 864.729 1374.86 829.855C1374.86 795.368 1383.41 768.437 1400.51 749.062C1417.77 729.687 1444.77 720 1481.52 720ZM1481.52 779.287C1463.95 779.287 1451.24 783.453 1443.41 791.784C1435.58 800.115 1431.67 812.805 1431.67 829.855C1431.67 847.098 1435.58 859.886 1443.41 868.217C1451.24 876.548 1463.95 880.713 1481.52 880.713C1499.26 880.713 1512.04 876.644 1519.87 868.507C1527.7 860.176 1531.62 847.292 1531.62 829.855C1531.62 812.805 1527.7 800.115 1519.87 791.784C1512.04 783.453 1499.26 779.287 1481.52 779.287Z" fill="white"/>
<path fill-rule="evenodd" clip-rule="evenodd" d="M178.964 726.394H228.819C260.618 726.394 282.75 733.272 295.214 747.028C307.677 760.59 313.909 779.771 313.909 804.571C313.909 821.62 311.433 836.152 306.479 848.164C301.526 859.982 292.817 869.282 280.353 876.064C267.889 882.651 250.711 885.945 228.819 885.945H178.964V937.094H120C121.278 899.508 121.917 864.342 121.917 831.599C121.917 798.855 121.278 763.69 120 726.103H178.964V726.394ZM178.964 829.855H212.041C225.304 829.855 235.211 829.274 241.762 828.111C248.474 826.755 253.109 824.431 255.665 821.137C258.382 817.843 259.739 812.999 259.739 806.606C259.739 800.212 258.461 795.464 255.904 792.364C253.507 789.071 248.953 786.843 242.242 785.681C235.691 784.518 225.623 783.936 212.041 783.936H178.964V829.855Z" fill="white"/>
<path fill-rule="evenodd" clip-rule="evenodd" d="M389.573 726.394H438.71C470.988 726.394 493.519 732.69 506.302 745.284C519.085 757.878 525.477 774.928 525.477 796.434C525.477 813.29 522.041 827.53 515.17 839.155C508.459 850.78 496.874 859.208 480.415 864.439C482.333 867.539 483.691 869.961 484.49 871.705L523.32 937.094H458.124C451.093 921.207 439.987 898.732 424.807 869.67H389.573V937.094H333.006C334.284 899.508 334.923 864.342 334.923 831.599C334.923 798.855 334.284 763.69 333.006 726.103H389.573V726.394ZM389.573 815.323H421.931C435.513 815.323 445.74 814.84 452.612 813.871C459.642 812.709 464.516 810.965 467.232 808.64C469.949 806.315 471.307 802.924 471.307 798.468C471.307 794.205 470.029 790.911 467.472 788.586C464.916 786.261 460.121 784.614 453.09 783.646C446.06 782.677 435.673 782.193 421.931 782.193H389.573V815.323Z" fill="white"/>
<path d="M730.846 778.706H601.174V806.606C608.844 806.8 620.19 806.896 635.21 806.896C660.617 806.895 686.903 806.315 714.068 805.152V855.138C686.903 853.976 660.617 853.395 635.21 853.395C620.19 853.395 608.844 853.493 601.174 853.686V883.911C661.895 883.523 705.918 882.457 733.243 880.713C732.124 888.657 731.406 896.892 731.086 905.417C730.926 913.748 730.846 924.307 730.846 937.094H544.607C545.885 899.508 546.524 864.342 546.524 831.599C546.524 798.855 545.885 763.69 544.607 726.103H730.846V778.706Z" fill="white"/>
<path fill-rule="evenodd" clip-rule="evenodd" d="M829.164 722.907C859.205 722.907 882.934 727.363 900.352 736.275C917.769 744.994 929.914 757.2 936.785 772.894C943.816 788.394 947.331 807.477 947.331 830.145C947.331 851.651 943.336 870.446 935.346 886.527C927.357 902.608 915.372 915.104 899.393 924.017C883.414 932.735 863.759 937.094 840.429 937.094H797.046C782.345 937.094 767.484 936.997 752.464 936.804C753.742 898.635 754.381 863.082 754.381 830.145C754.381 796.821 753.742 762.044 752.464 725.813C771.479 723.876 797.046 722.907 829.164 722.907ZM847.141 780.74C831.642 780.74 820.056 781.322 812.386 782.484V879.261H847.141C862.002 879.261 871.909 874.902 876.862 866.183C881.816 857.465 884.293 845.452 884.293 830.145C884.293 815.421 881.656 803.506 876.383 794.4C871.269 785.294 861.522 780.74 847.141 780.74Z" fill="white"/>
<path fill-rule="evenodd" clip-rule="evenodd" d="M1165.45 937.094H1103.37C1100.34 926.051 1096.26 912.198 1091.15 895.535H1014.69L1002.7 937.094H942.539L1009.65 726.103H1097.86L1165.45 937.094ZM1053.04 770.278C1047.44 787.909 1039.21 814.55 1028.35 850.199H1077.48C1071.41 829.856 1065.18 809.511 1058.79 789.168L1053.04 770.278Z" fill="white"/>
<path d="M1369.86 787.134C1344.77 786.165 1320.4 785.584 1296.75 785.39V937.094H1236.83V785.39C1213.02 785.584 1188.73 786.165 1163.96 787.134V726.103H1369.86V787.134Z" fill="white"/>
<path fill-rule="evenodd" clip-rule="evenodd" d="M1664.1 726.394H1713.23C1745.51 726.394 1768.04 732.69 1780.82 745.284C1793.61 757.878 1800 774.928 1800 796.434C1800 813.29 1796.56 827.53 1789.69 839.155C1782.98 850.78 1771.4 859.208 1754.94 864.439C1756.86 867.539 1758.21 869.961 1759.01 871.705L1797.84 937.094H1732.65C1725.62 921.207 1714.51 898.732 1699.33 869.67H1664.1V937.094H1607.53C1608.81 899.508 1609.45 864.342 1609.45 831.599C1609.45 798.855 1608.81 763.69 1607.53 726.103H1664.1V726.394ZM1664.1 815.323H1696.45C1710.04 815.323 1720.26 814.84 1727.13 813.871C1734.16 812.709 1739.04 810.965 1741.76 808.64C1744.47 806.315 1745.83 802.924 1745.83 798.468C1745.83 794.205 1744.55 790.911 1741.99 788.586C1739.44 786.261 1734.64 784.614 1727.61 783.646C1720.58 782.677 1710.2 782.193 1696.45 782.193H1664.1V815.323Z" fill="white"/>
</g>
<defs>
<filter id="filter0_d_2709_80" x="-531.053" y="-564.053" width="2982.11" height="2982.11" filterUnits="userSpaceOnUse" color-interpolation-filters="sRGB">
<feFlood flood-opacity="0" result="BackgroundImageFix"/>
<feColorMatrix in="SourceAlpha" type="matrix" values="0 0 0 0 0 0 0 0 0 0 0 0 0 0 0 0 0 0 127 0" result="hardAlpha"/>
<feOffset dy="-33"/>
<feGaussianBlur stdDeviation="35"/>
<feComposite in2="hardAlpha" operator="out"/>
<feColorMatrix type="matrix" values="0 0 0 0 0 0 0 0 0 0 0 0 0 0 0 0 0 0 0.25 0"/>
<feBlend mode="normal" in2="BackgroundImageFix" result="effect1_dropShadow_2709_80"/>
<feBlend mode="normal" in="SourceGraphic" in2="effect1_dropShadow_2709_80" result="shape"/>
</filter>
<clipPath id="clip0_2709_80">
<rect width="1920" height="1920" rx="482" fill="white"/>
</clipPath>
</defs>
</svg>
