<svg width="200" height="200" viewBox="0 0 200 200" fill="none" xmlns="http://www.w3.org/2000/svg">
<g clip-path="url(#clip0_2500_129)">
<path d="M100.033 0C58.2836 0 46.0735 0.043086 43.7001 0.239999C35.1325 0.952365 29.8013 2.30173 23.9931 5.19421C19.517 7.41755 15.9869 9.99466 12.5029 13.6073C6.158 20.1955 2.31256 28.3008 0.920485 37.9355C0.243722 42.6128 0.0468074 43.5667 0.00681995 67.458C-0.00852494 75.4218 0.00681995 85.9026 0.00681995 99.9607C0.00681995 141.687 0.0529299 153.888 0.252943 156.258C0.945125 164.597 2.25254 169.844 5.02127 175.583C10.3126 186.568 20.4183 194.815 32.3238 197.892C36.4462 198.954 40.9991 199.538 46.8442 199.815C49.3207 199.923 74.562 200 99.8188 200C125.076 200 150.332 199.969 152.747 199.846C159.515 199.528 163.445 199 167.791 197.877C179.773 194.784 189.694 186.66 195.093 175.521C197.808 169.92 199.185 164.474 199.808 156.57C199.943 154.847 200 127.372 200 99.9347C200 72.4923 199.938 45.0684 199.803 43.3451C199.172 35.3137 197.796 29.9133 194.993 24.2051C192.694 19.5324 190.14 16.0428 186.433 12.4749C179.818 6.15436 171.727 2.30786 162.086 0.916989C157.414 0.241512 156.484 0.0414992 132.58 0H100.033Z" fill="url(#paint0_radial_2500_129)"/>
<path d="M100.033 0C58.2836 0 46.0735 0.043086 43.7001 0.239999C35.1325 0.952365 29.8013 2.30173 23.9931 5.19421C19.517 7.41755 15.9869 9.99466 12.5029 13.6073C6.158 20.1955 2.31256 28.3008 0.920485 37.9355C0.243722 42.6128 0.0468074 43.5667 0.00681995 67.458C-0.00852494 75.4218 0.00681995 85.9026 0.00681995 99.9607C0.00681995 141.687 0.0529299 153.888 0.252943 156.258C0.945125 164.597 2.25254 169.844 5.02127 175.583C10.3126 186.568 20.4183 194.815 32.3238 197.892C36.4462 198.954 40.9991 199.538 46.8442 199.815C49.3207 199.923 74.562 200 99.8188 200C125.076 200 150.332 199.969 152.747 199.846C159.515 199.528 163.445 199 167.791 197.877C179.773 194.784 189.694 186.66 195.093 175.521C197.808 169.92 199.185 164.474 199.808 156.57C199.943 154.847 200 127.372 200 99.9347C200 72.4923 199.938 45.0684 199.803 43.3451C199.172 35.3137 197.796 29.9133 194.993 24.2051C192.694 19.5324 190.14 16.0428 186.433 12.4749C179.818 6.15436 171.727 2.30786 162.086 0.916989C157.414 0.241512 156.484 0.0414992 132.58 0H100.033Z" fill="url(#paint1_radial_2500_129)"/>
<path d="M100.033 0C58.2836 0 46.0735 0.043086 43.7001 0.239999C35.1325 0.952365 29.8013 2.30173 23.9931 5.19421C19.517 7.41755 15.9869 9.99466 12.5029 13.6073C6.158 20.1955 2.31256 28.3008 0.920485 37.9355C0.243722 42.6128 0.0468074 43.5667 0.00681995 67.458C-0.00852494 75.4218 0.00681995 85.9026 0.00681995 99.9607C0.00681995 141.687 0.0529299 153.888 0.252943 156.258C0.945125 164.597 2.25254 169.844 5.02127 175.583C10.3126 186.568 20.4183 194.815 32.3238 197.892C36.4462 198.954 40.9991 199.538 46.8442 199.815C49.3207 199.923 74.562 200 99.8188 200C125.076 200 150.332 199.969 152.747 199.846C159.515 199.528 163.445 199 167.791 197.877C179.773 194.784 189.694 186.66 195.093 175.521C197.808 169.92 199.185 164.474 199.808 156.57C199.943 154.847 200 127.372 200 99.9347C200 72.4923 199.938 45.0684 199.803 43.3451C199.172 35.3137 197.796 29.9133 194.993 24.2051C192.694 19.5324 190.14 16.0428 186.433 12.4749C179.818 6.15436 171.727 2.30786 162.086 0.916989C157.414 0.241512 156.484 0.0414992 132.58 0H100.033Z" fill="url(#paint2_radial_2500_129)"/>
<path d="M100.033 0C58.2836 0 46.0735 0.043086 43.7001 0.239999C35.1325 0.952365 29.8013 2.30173 23.9931 5.19421C19.517 7.41755 15.9869 9.99466 12.5029 13.6073C6.158 20.1955 2.31256 28.3008 0.920485 37.9355C0.243722 42.6128 0.0468074 43.5667 0.00681995 67.458C-0.00852494 75.4218 0.00681995 85.9026 0.00681995 99.9607C0.00681995 141.687 0.0529299 153.888 0.252943 156.258C0.945125 164.597 2.25254 169.844 5.02127 175.583C10.3126 186.568 20.4183 194.815 32.3238 197.892C36.4462 198.954 40.9991 199.538 46.8442 199.815C49.3207 199.923 74.562 200 99.8188 200C125.076 200 150.332 199.969 152.747 199.846C159.515 199.528 163.445 199 167.791 197.877C179.773 194.784 189.694 186.66 195.093 175.521C197.808 169.92 199.185 164.474 199.808 156.57C199.943 154.847 200 127.372 200 99.9347C200 72.4923 199.938 45.0684 199.803 43.3451C199.172 35.3137 197.796 29.9133 194.993 24.2051C192.694 19.5324 190.14 16.0428 186.433 12.4749C179.818 6.15436 171.727 2.30786 162.086 0.916989C157.414 0.241512 156.484 0.0414992 132.58 0H100.033Z" fill="url(#paint3_radial_2500_129)"/>
<path d="M100.04 25.6804C79.8442 25.6804 77.3098 25.7686 69.3778 26.1294C61.4614 26.4916 56.0578 27.744 51.3297 29.5816C46.4389 31.4794 42.2901 34.0182 38.1569 38.1499C34.0205 42.2802 31.4798 46.4258 29.5743 51.3114C27.7307 56.0377 26.4759 61.4388 26.1196 69.3462C25.7649 77.2722 25.6719 79.8064 25.6719 99.9867C25.6719 120.167 25.7618 122.692 26.1211 130.618C26.4852 138.528 27.7385 143.928 29.5758 148.653C31.4767 153.54 34.0174 157.686 38.1522 161.816C42.284 165.949 46.4327 168.494 51.3204 170.392C56.0516 172.229 61.4568 173.482 69.3716 173.844C77.3036 174.205 79.8364 174.293 100.03 174.293C120.227 174.293 122.754 174.205 130.686 173.844C138.602 173.482 144.012 172.229 148.743 170.392C153.632 168.494 157.775 165.949 161.907 161.816C166.043 157.686 168.584 153.54 170.489 148.654C172.317 143.928 173.572 138.527 173.944 130.619C174.3 122.693 174.393 120.167 174.393 99.9867C174.393 79.8063 174.3 77.2738 173.944 69.3477C173.572 61.4372 172.317 56.0377 170.489 51.313C168.584 46.4258 166.043 42.2801 161.907 38.1499C157.77 34.0166 153.634 31.4778 148.739 29.5815C143.998 27.744 138.591 26.4916 130.675 26.1294C122.743 25.7686 120.218 25.6804 100.016 25.6804H100.04ZM93.3687 39.0711C95.3486 39.068 97.5577 39.0711 100.04 39.0711C119.894 39.0711 122.247 39.1423 130.088 39.4983C137.338 39.8296 141.273 41.0401 143.894 42.0572C147.364 43.404 149.839 45.014 152.44 47.6147C155.042 50.2155 156.653 52.6923 158.004 56.1599C159.022 58.7761 160.235 62.7082 160.565 69.9531C160.921 77.7861 160.999 80.1392 160.999 99.9697C160.999 119.8 160.921 122.153 160.565 129.986C160.234 137.231 159.022 141.163 158.004 143.779C156.657 147.247 155.042 149.716 152.44 152.315C149.837 154.916 147.366 156.526 143.894 157.873C141.276 158.895 137.338 160.102 130.088 160.433C122.249 160.789 119.894 160.867 100.04 160.867C80.1835 160.867 77.8303 160.789 69.9913 160.433C62.7411 160.099 58.8062 158.888 56.1833 157.871C52.7131 156.525 50.2343 154.914 47.6318 152.314C45.0291 149.713 43.418 147.242 42.067 143.773C41.0492 141.157 39.8362 137.225 39.5062 129.98C39.1499 122.147 39.0786 119.794 39.0786 99.9511C39.0786 80.1083 39.1499 77.7675 39.5062 69.9345C39.8378 62.6896 41.0492 58.7576 42.067 56.1383C43.4148 52.6706 45.0291 50.1938 47.6318 47.5931C50.2343 44.9923 52.7131 43.3824 56.1833 42.0325C58.8046 41.0107 62.7411 39.8033 69.9913 39.4704C76.8511 39.1608 79.5096 39.068 93.3687 39.0524L93.3687 39.0711ZM139.733 51.409C134.807 51.409 130.81 55.3983 130.81 60.3226C130.81 65.2454 134.807 69.2394 139.733 69.2394C144.66 69.2394 148.657 65.2454 148.657 60.3226C148.657 55.3998 144.66 51.4059 139.733 51.4059L139.733 51.409ZM100.04 61.8273C78.9503 61.8273 61.8519 78.9131 61.8519 99.9867C61.8519 121.06 78.9503 138.138 100.04 138.138C121.129 138.138 138.221 121.06 138.221 99.9867C138.221 78.9131 121.127 61.8273 100.038 61.8273H100.04ZM100.04 75.2179C113.728 75.2179 124.827 86.3066 124.827 99.9867C124.827 113.665 113.728 124.755 100.04 124.755C86.3493 124.755 75.2524 113.665 75.2524 99.9867C75.2524 86.3066 86.3493 75.2179 100.04 75.2179Z" fill="white"/>
</g>
<defs>
<radialGradient id="paint0_radial_2500_129" cx="0" cy="0" r="1" gradientTransform="matrix(-122.991 34.6863 -24.9902 -88.609 193.542 93.7425)" gradientUnits="userSpaceOnUse">
<stop stop-color="#FF005F"/>
<stop offset="1" stop-color="#FC01D8"/>
</radialGradient>
<radialGradient id="paint1_radial_2500_129" cx="0" cy="0" r="1" gradientUnits="userSpaceOnUse" gradientTransform="translate(53.1235 215.404) rotate(-90) scale(159.644 169.379)">
<stop stop-color="#FFCC00"/>
<stop offset="0.1242" stop-color="#FFCC00"/>
<stop offset="0.5672" stop-color="#FE4A05"/>
<stop offset="0.6942" stop-color="#FF0F3F"/>
<stop offset="1" stop-color="#FE0657" stop-opacity="0"/>
</radialGradient>
<radialGradient id="paint2_radial_2500_129" cx="0" cy="0" r="1" gradientTransform="matrix(33.1364 -57.095 74.3312 43.14 105.054 197.179)" gradientUnits="userSpaceOnUse">
<stop stop-color="#FFCC00"/>
<stop offset="1" stop-color="#FFCC00" stop-opacity="0"/>
</radialGradient>
<radialGradient id="paint3_radial_2500_129" cx="0" cy="0" r="1" gradientTransform="matrix(-121.641 34.252 -11.6666 -41.4438 27.1357 8.14394)" gradientUnits="userSpaceOnUse">
<stop stop-color="#780CFF"/>
<stop offset="1" stop-color="#820BFF" stop-opacity="0"/>
</radialGradient>
<clipPath id="clip0_2500_129">
<rect width="200" height="200" fill="white"/>
</clipPath>
</defs>
</svg>
