<svg width="650" height="300" viewBox="0 0 650 300" fill="none" xmlns="http://www.w3.org/2000/svg">
<rect width="650" height="300" fill="#020102"/>
<rect width="316" height="232" transform="translate(167 34)" fill="white"/>
<path d="M481.012 35.5918H168.987C168.768 35.5918 168.59 35.77 168.59 35.9897V264.01C168.59 264.23 168.768 264.408 168.987 264.408H481.012C481.232 264.408 481.41 264.23 481.41 264.01V35.9897C481.41 35.77 481.232 35.5918 481.012 35.5918Z" fill="#020102"/>
<path d="M479.025 181.238H170.975C170.755 181.238 170.577 181.417 170.577 181.636V262.021C170.577 262.24 170.755 262.418 170.975 262.418H479.025C479.244 262.418 479.422 262.24 479.422 262.021V181.636C479.422 181.417 479.244 181.238 479.025 181.238Z" fill="#FDAC02"/>
<path d="M215.593 193.445C222.354 193.445 227.662 194.824 231.519 197.58C235.399 200.337 238.279 204.57 240.159 210.28L225.514 213.566C225.002 211.917 224.465 210.711 223.903 209.948C222.976 208.668 221.841 207.684 220.499 206.994C219.156 206.305 217.655 205.961 215.995 205.961C212.237 205.961 209.357 207.487 207.355 210.539C205.842 212.803 205.085 216.359 205.085 221.208C205.085 227.213 205.989 231.336 207.795 233.576C209.601 235.79 212.139 236.899 215.41 236.899C218.583 236.899 220.975 235.999 222.586 234.203C224.221 232.407 225.404 229.798 226.137 226.376L240.671 230.807C239.695 234.917 238.157 238.351 236.058 241.107C233.959 243.863 231.348 245.944 228.224 247.347C225.124 248.749 221.17 249.45 216.362 249.45C210.528 249.45 205.757 248.602 202.047 246.903C198.361 245.18 195.176 242.165 192.491 237.858C189.806 233.552 188.464 228.038 188.464 221.319C188.464 212.36 190.819 205.481 195.53 200.681C200.265 195.857 206.953 193.445 215.593 193.445Z" fill="#040204"/>
<path fill-rule="evenodd" clip-rule="evenodd" d="M276.624 194.368C281.749 194.368 285.667 194.811 288.376 195.697C291.085 196.583 293.27 198.232 294.929 200.644C296.589 203.032 297.419 205.948 297.419 209.394C297.419 212.397 296.784 214.993 295.515 217.184C294.246 219.35 292.501 221.109 290.28 222.463C288.864 223.325 286.924 224.038 284.459 224.604C286.435 225.269 287.876 225.933 288.779 226.598C289.389 227.041 290.268 227.989 291.415 229.441C292.586 230.893 293.367 232.013 293.758 232.8L301.733 248.407L321.875 194.368H339.961L360.134 248.491H342.78L340.144 239.557H321.253L318.653 248.491H283.031L274.171 231.951C273.048 229.81 272.047 228.419 271.169 227.779C269.973 226.942 268.618 226.524 267.105 226.524H265.64V248.491H248.982V194.368H276.624ZM324.841 227.853H336.666L330.735 208.397L324.841 227.853ZM265.64 216.298H272.633C273.39 216.298 274.854 216.052 277.026 215.559C278.125 215.338 279.016 214.772 279.699 213.861C280.407 212.95 280.761 211.904 280.761 210.723C280.761 208.976 280.212 207.634 279.113 206.699C278.015 205.764 275.953 205.296 272.926 205.296H265.64V216.298Z" fill="#040204"/>
<path d="M406.556 205.998H382.21V215.449H403.004V226.376H382.21V248.491H365.552V194.368H406.556V205.998Z" fill="#040204"/>
<path d="M462.132 207.733H445.217V248.491H428.632V207.733H411.719V194.368H462.132V207.733Z" fill="#040204"/>
<path d="M455.77 75.8828H397.419L394.301 93.281C398.339 91.5939 402.318 90.3287 406.237 89.485C410.218 88.6416 414.137 88.2198 417.997 88.2198C431.064 88.2198 441.665 91.7258 449.802 98.7378C457.938 105.75 462.007 114.581 462.007 125.231C462.007 132.717 459.898 139.914 455.681 146.82C451.523 153.727 445.585 158.999 437.863 162.637C430.202 166.275 420.374 168.094 408.376 168.094C399.764 168.094 392.371 167.382 386.194 165.958C380.077 164.482 374.85 162.321 370.516 159.474C366.239 156.574 362.764 153.305 360.092 149.667C357.419 146.03 355.192 141.495 353.41 136.065L390.114 132.506C391.004 137.726 393.083 141.706 396.35 144.448C399.615 147.137 403.507 148.481 408.02 148.481C413.068 148.481 417.226 146.794 420.491 143.42C423.818 139.993 425.482 134.905 425.482 128.157C425.482 121.25 423.818 116.189 420.491 112.973C417.166 109.757 412.742 108.149 407.219 108.149C403.713 108.149 400.329 108.913 397.062 110.442C394.627 111.549 391.954 113.553 389.044 116.453L358.132 112.498L369.623 50.1808H455.77V75.8828Z" fill="white"/>
<path d="M261.651 120.723L282.052 50.1808H334.969V166.117H302.008V77.7018L276.44 166.117H246.596L221.117 77.7018V166.117H188.066V50.1808H241.162L261.651 120.723Z" fill="white"/>
</svg>
