<svg width="200" height="200" viewBox="0 0 200 200" fill="none" xmlns="http://www.w3.org/2000/svg">
<g clip-path="url(#clip0_2500_118)">
<circle cx="100" cy="100" r="100" fill="#FEFEFE"/>
<path fill-rule="evenodd" clip-rule="evenodd" d="M100 0C155.228 0 200 44.7715 200 100C200 155.228 155.228 200 100 200C44.7715 200 0 155.228 0 100C0 44.7715 44.7715 0 100 0ZM140.857 60.1416C137.109 60.225 131.278 62.2245 103.54 73.8027C93.7941 77.8844 74.385 86.2976 45.2305 98.959C40.566 100.875 38.0673 102.708 37.8174 104.54C37.4012 108.038 42.3992 109.121 48.6465 111.12C53.8108 112.786 60.6408 114.702 64.2227 114.785C67.4713 114.868 71.0534 113.536 75.0518 110.787C102.29 92.3781 116.285 83.0484 117.201 82.8818C117.867 82.7153 118.7 82.5491 119.283 83.0488C119.866 83.5485 119.866 84.5477 119.783 84.7979C119.283 86.8803 93.7105 110.204 92.2109 111.703C86.5466 117.534 80.1334 121.116 90.0459 127.613C98.6255 133.277 103.54 136.86 112.369 142.607C117.95 146.273 122.365 150.604 128.196 150.104C130.862 149.855 133.61 147.355 135.026 139.858C138.358 122.199 144.856 83.7984 146.355 67.9717C146.522 66.6389 146.355 64.8896 146.188 64.0566C146.022 63.2237 145.772 62.1406 144.772 61.3076C143.523 60.3082 141.69 60.1416 140.857 60.1416Z" fill="url(#paint0_linear_2500_118)"/>
</g>
<defs>
<linearGradient id="paint0_linear_2500_118" x1="99.9167" y1="0" x2="99.9167" y2="198.418" gradientUnits="userSpaceOnUse">
<stop stop-color="#2AABEE"/>
<stop offset="1" stop-color="#229ED9"/>
</linearGradient>
<clipPath id="clip0_2500_118">
<rect width="200" height="200" fill="white"/>
</clipPath>
</defs>
</svg>
