<svg width="650" height="300" viewBox="0 0 650 300" fill="none" xmlns="http://www.w3.org/2000/svg">
<rect width="650" height="300" fill="black"/>
<g clip-path="url(#clip0_2305_1532)">
<path d="M242.683 49.3938V44.6988C242.683 42.6138 242.062 40.9293 240.818 39.6453C239.575 38.3613 237.944 37.7256 235.925 37.7383C234.686 37.7116 233.462 38.0185 232.382 38.627C231.371 39.1992 230.541 40.0419 229.983 41.0603C229.386 42.1745 229.087 43.4237 229.113 44.6874V53.1964C229.085 54.4784 229.384 55.7466 229.983 56.8808C230.54 57.9004 231.371 58.7444 232.382 59.3178C233.465 59.9162 234.688 60.2174 235.925 60.1912C237.959 60.1912 239.59 59.5556 240.818 58.2842C242.047 57.013 242.668 55.322 242.683 53.2116V52.8302H239.812V53.326C239.859 54.3984 239.481 55.4458 238.759 56.24C238.393 56.6168 237.951 56.9108 237.462 57.1022C236.973 57.2936 236.449 57.3782 235.925 57.3498C235.396 57.3746 234.867 57.2886 234.372 57.0976C233.878 56.9064 233.428 56.6144 233.053 56.24C232.691 55.8492 232.41 55.3904 232.227 54.8902C232.044 54.39 231.961 53.8582 231.985 53.326V49.3938H242.683ZM233.053 41.7087C233.428 41.3342 233.878 41.0421 234.372 40.851C234.867 40.66 235.396 40.574 235.925 40.5988C236.449 40.5705 236.973 40.655 237.462 40.8464C237.951 41.0379 238.393 41.3319 238.759 41.7087C239.117 42.0966 239.395 42.5521 239.576 43.0484C239.756 43.5447 239.837 44.072 239.812 44.5997V46.6211H231.985V44.5997C231.96 44.0708 232.042 43.5422 232.225 43.0455C232.409 42.5488 232.69 42.0942 233.053 41.7087Z" fill="white"/>
<path d="M223.576 40.6982C223.1 39.7628 222.356 38.9901 221.44 38.4785C220.508 37.9591 219.455 37.6959 218.389 37.7157C217.371 37.6911 216.366 37.933 215.471 38.4175C214.897 38.7537 214.392 39.1964 213.983 39.7218V30H211.111V59.7148H213.983V44.5809C213.93 43.5119 214.3 42.4651 215.013 41.667C215.371 41.3062 215.8 41.0234 216.273 40.8363C216.745 40.6492 217.251 40.562 217.759 40.58C218.26 40.5582 218.759 40.644 219.223 40.8315C219.688 41.019 220.107 41.3039 220.452 41.667C221.165 42.4651 221.535 43.5119 221.482 44.5809V59.7148H224.354V44.2834C224.398 43.0421 224.131 41.8094 223.576 40.6982Z" fill="white"/>
<path d="M199.483 59.7148V32.9711H194.372V30H207.545V32.9711H202.454V59.7148H199.483Z" fill="white"/>
<path d="M476.156 218.315C475.648 217.333 474.862 216.52 473.898 215.977C472.93 215.443 471.836 215.171 470.73 215.188C469.706 215.159 468.692 215.405 467.796 215.901C467.242 216.22 466.752 216.641 466.352 217.141V215.684H463.48V244.288H466.352V235.708C466.748 236.212 467.24 236.636 467.796 236.958C468.698 237.44 469.708 237.68 470.73 237.652C471.834 237.672 472.924 237.41 473.898 236.89C474.864 236.348 475.648 235.534 476.156 234.552C476.744 233.38 477.03 232.078 476.988 230.768V222.072C477.032 220.77 476.746 219.477 476.156 218.315ZM474.116 230.756C474.164 231.826 473.788 232.874 473.068 233.666C472.696 234.046 472.246 234.34 471.752 234.532C471.256 234.724 470.726 234.808 470.196 234.776C469.672 234.806 469.15 234.726 468.66 234.536C468.172 234.348 467.73 234.058 467.362 233.686C466.666 232.88 466.304 231.836 466.352 230.772V222.061C466.3 221.002 466.664 219.966 467.362 219.17C468.142 218.452 469.162 218.053 470.222 218.053C471.282 218.053 472.304 218.452 473.082 219.17C473.44 219.558 473.718 220.013 473.898 220.51C474.078 221.006 474.158 221.533 474.132 222.061L474.116 230.756Z" fill="white"/>
<path d="M451.706 237.652C450.468 237.678 449.246 237.378 448.162 236.78C447.152 236.206 446.32 235.362 445.764 234.342C445.164 233.208 444.866 231.94 444.894 230.658V222.16C444.866 220.897 445.166 219.647 445.764 218.533C446.318 217.506 447.148 216.655 448.162 216.077C449.242 215.469 450.466 215.162 451.706 215.188C453.74 215.188 455.37 215.824 456.598 217.095C457.826 218.367 458.448 220.051 458.464 222.149V230.646C458.464 232.734 457.842 234.424 456.598 235.718C455.356 237.014 453.724 237.658 451.706 237.652ZM451.706 234.78C452.23 234.81 452.754 234.724 453.242 234.534C453.732 234.342 454.174 234.048 454.54 233.67C455.262 232.876 455.64 231.83 455.592 230.758V222.061C455.616 221.534 455.536 221.006 455.356 220.51C455.176 220.014 454.898 219.558 454.54 219.17C454.174 218.793 453.732 218.499 453.242 218.308C452.754 218.116 452.23 218.032 451.706 218.06C451.176 218.035 450.646 218.121 450.152 218.313C449.658 218.504 449.208 218.796 448.834 219.17C448.47 219.556 448.188 220.01 448.006 220.507C447.822 221.004 447.74 221.532 447.766 222.061V230.758C447.742 231.29 447.824 231.82 448.008 232.322C448.19 232.822 448.472 233.28 448.834 233.67C449.208 234.046 449.658 234.338 450.152 234.528C450.646 234.72 451.176 234.806 451.706 234.78Z" fill="white"/>
<path d="M439.352 218.156C438.876 217.221 438.13 216.449 437.212 215.94C436.28 215.421 435.228 215.158 434.162 215.177C433.138 215.152 432.126 215.398 431.228 215.891C430.648 216.245 430.144 216.709 429.74 217.256V207.462H426.868V237.176H429.74V222.039C429.686 220.97 430.058 219.924 430.774 219.129C431.134 218.76 431.568 218.472 432.048 218.282C432.526 218.093 433.04 218.007 433.554 218.03C434.056 218.008 434.556 218.094 435.02 218.282C435.484 218.471 435.904 218.757 436.248 219.121C436.96 219.918 437.33 220.963 437.278 222.031V237.176H440.15V221.745C440.186 220.501 439.912 219.268 439.352 218.156Z" fill="white"/>
<path d="M415.792 237.654C413.744 237.654 412.098 237.064 410.858 235.888C409.616 234.71 409.002 233.146 409.016 231.192V230.502H411.892V231.314C411.872 231.784 411.956 232.254 412.136 232.688C412.318 233.122 412.592 233.512 412.94 233.828C413.724 234.488 414.728 234.828 415.75 234.782C416.732 234.83 417.692 234.486 418.42 233.828C419.082 233.194 419.412 232.276 419.408 231.074C419.45 230.448 419.29 229.824 418.954 229.293C418.64 228.852 418.196 228.518 417.684 228.34C417.028 228.102 416.354 227.917 415.668 227.787C414.496 227.546 413.338 227.241 412.2 226.875C411.268 226.584 410.446 226.018 409.844 225.25C409.286 224.51 409.008 223.408 409.008 221.944C409.008 219.752 409.61 218.081 410.812 216.932C412.014 215.783 413.606 215.202 415.586 215.189C417.636 215.189 419.256 215.78 420.462 216.97C421.666 218.16 422.28 219.697 422.28 221.627V222.298H419.408V221.536C419.43 221.066 419.35 220.598 419.172 220.163C418.994 219.728 418.724 219.338 418.378 219.018C417.596 218.4 416.628 218.065 415.632 218.069C414.634 218.072 413.668 218.414 412.89 219.037C412.22 219.67 411.884 220.588 411.884 221.791C411.846 222.422 411.996 223.051 412.318 223.595C412.652 224.025 413.108 224.343 413.626 224.507C414.294 224.732 414.976 224.917 415.668 225.06C416.83 225.29 417.976 225.594 419.1 225.971C420.028 226.27 420.842 226.843 421.438 227.615C422.006 228.378 422.288 229.484 422.288 230.964C422.288 233.114 421.694 234.768 420.508 235.922C419.32 237.076 417.748 237.654 415.792 237.654Z" fill="white"/>
<path d="M406.136 215.424C405.126 215.403 404.128 215.649 403.244 216.138C402.654 216.468 402.134 216.915 401.72 217.45V215.68H398.848V237.176H401.72V222.225C401.692 221.702 401.77 221.179 401.948 220.686C402.124 220.193 402.396 219.74 402.75 219.353C403.112 218.993 403.546 218.713 404.024 218.529C404.502 218.345 405.012 218.262 405.522 218.285H407.048V215.413L406.136 215.424Z" fill="white"/>
<path d="M394.004 226.854V222.159C394.004 220.074 393.384 218.39 392.142 217.106C390.902 215.822 389.27 215.186 387.25 215.199C386.008 215.173 384.784 215.479 383.702 216.087C382.69 216.666 381.86 217.517 381.306 218.544C380.708 219.657 380.406 220.907 380.434 222.171V230.668C380.404 231.95 380.706 233.22 381.306 234.352C381.862 235.372 382.692 236.216 383.702 236.79C384.788 237.388 386.01 237.688 387.25 237.664C389.284 237.664 390.914 237.028 392.142 235.756C393.37 234.484 393.992 232.794 394.004 230.684V230.302H391.132V230.798C391.18 231.87 390.802 232.916 390.082 233.712C389.718 234.088 389.276 234.382 388.786 234.574C388.298 234.766 387.774 234.85 387.25 234.822C386.72 234.846 386.19 234.76 385.696 234.57C385.202 234.378 384.752 234.086 384.378 233.712C384.014 233.322 383.734 232.862 383.55 232.362C383.366 231.862 383.282 231.33 383.306 230.798V226.854H394.004ZM384.378 219.173C384.752 218.799 385.202 218.506 385.696 218.315C386.19 218.124 386.72 218.038 387.25 218.063C387.774 218.035 388.298 218.12 388.786 218.311C389.276 218.503 389.718 218.796 390.082 219.173C390.44 219.562 390.716 220.017 390.896 220.513C391.076 221.01 391.156 221.537 391.132 222.064V224.085H383.306V222.064C383.282 221.535 383.364 221.006 383.548 220.51C383.732 220.013 384.014 219.558 384.378 219.173Z" fill="white"/>
<path d="M375.136 218.316C374.626 217.335 373.84 216.523 372.878 215.978C371.908 215.443 370.816 215.169 369.708 215.185C368.685 215.158 367.672 215.404 366.775 215.898C366.215 216.235 365.724 216.677 365.33 217.199V207.462H362.458V237.176H365.33V235.65C365.723 236.178 366.214 236.622 366.775 236.962C367.676 237.444 368.687 237.684 369.708 237.658C370.813 237.676 371.904 237.414 372.878 236.894C373.84 236.35 374.626 235.538 375.136 234.556C375.722 233.384 376.008 232.084 375.968 230.772V222.077C376.01 220.773 375.724 219.48 375.136 218.316ZM373.096 230.758C373.142 231.828 372.766 232.874 372.046 233.668C371.675 234.046 371.226 234.342 370.73 234.534C370.235 234.724 369.705 234.808 369.174 234.778C368.652 234.808 368.129 234.728 367.64 234.54C367.151 234.352 366.708 234.064 366.341 233.69C365.643 232.884 365.281 231.842 365.33 230.776V222.062C365.279 221.002 365.641 219.964 366.341 219.167C366.708 218.787 367.153 218.491 367.645 218.299C368.138 218.107 368.666 218.025 369.193 218.057C369.721 218.028 370.248 218.112 370.74 218.303C371.232 218.495 371.677 218.789 372.046 219.167C372.404 219.557 372.68 220.013 372.86 220.51C373.04 221.006 373.12 221.534 373.096 222.062V230.758Z" fill="white"/>
<path d="M358.545 215.424C357.535 215.403 356.538 215.649 355.654 216.138C355.07 216.471 354.558 216.917 354.147 217.45V215.68H351.275V237.176H354.147V222.225C354.121 221.702 354.198 221.179 354.375 220.686C354.552 220.193 354.824 219.74 355.177 219.353C355.541 218.993 355.975 218.713 356.452 218.529C356.929 218.345 357.439 218.262 357.95 218.285H359.476V215.413L358.545 215.424Z" fill="white"/>
<path d="M345.112 218.514C344.549 217.492 343.712 216.648 342.694 216.077C341.619 215.47 340.401 215.163 339.166 215.188C337.148 215.188 335.516 215.824 334.273 217.095C333.03 218.366 332.409 220.051 332.412 222.149V222.644H335.284V222.049C335.232 220.988 335.603 219.949 336.314 219.158C337.093 218.44 338.114 218.042 339.174 218.042C340.234 218.042 341.255 218.44 342.034 219.158C342.404 219.541 342.691 219.994 342.879 220.491C343.066 220.988 343.15 221.519 343.125 222.049V222.564C343.143 222.867 343.094 223.169 342.981 223.45C342.868 223.731 342.695 223.983 342.473 224.189C341.967 224.608 341.38 224.918 340.749 225.101C340.036 225.31 339.254 225.516 338.411 225.715C337.572 225.899 336.751 226.154 335.955 226.478C335.278 226.748 334.637 227.101 334.048 227.53C333.439 227.981 332.939 228.562 332.583 229.231C332.172 230.034 331.974 230.928 332.008 231.828C331.983 232.596 332.114 233.36 332.394 234.076C332.673 234.79 333.094 235.442 333.632 235.99C334.715 237.082 336.241 237.63 338.209 237.634C339.343 237.664 340.467 237.412 341.478 236.898C342.115 236.558 342.675 236.092 343.121 235.524V237.156H345.993V222.16C346.018 220.889 345.715 219.633 345.112 218.514ZM341.962 233.788C341.199 234.552 340.143 234.934 338.793 234.934C337.539 234.934 336.568 234.63 335.879 234.022C335.543 233.726 335.277 233.358 335.099 232.948C334.921 232.538 334.836 232.092 334.849 231.646C334.823 231.27 334.878 230.894 335.01 230.542C335.141 230.19 335.347 229.871 335.612 229.605C336.172 229.083 336.842 228.692 337.572 228.461C338.497 228.149 339.444 227.911 340.406 227.748C341.36 227.574 342.273 227.225 343.099 226.718V230.532C343.106 231.936 342.727 233.022 341.962 233.788Z" fill="white"/>
<path d="M327.053 223.564C326.672 222.828 326.142 222.178 325.497 221.657C326.033 221.164 326.474 220.577 326.798 219.925C327.275 218.881 327.512 217.744 327.492 216.596V214.216C327.492 212.182 326.903 210.551 325.726 209.323C324.549 208.095 322.991 207.48 321.054 207.48H313.724V237.176H321.447C323.402 237.176 324.961 236.554 326.123 235.312C327.285 234.068 327.872 232.444 327.885 230.44V227.111C327.913 225.877 327.627 224.657 327.053 223.564ZM316.695 210.432H321.054C321.523 210.411 321.99 210.491 322.425 210.669C322.859 210.847 323.249 211.118 323.567 211.462C324.225 212.217 324.566 213.197 324.517 214.197V216.611C324.566 217.611 324.225 218.591 323.567 219.346C323.249 219.69 322.859 219.961 322.425 220.139C321.99 220.317 321.523 220.397 321.054 220.376H316.695V210.432ZM324.933 230.44C324.977 231.438 324.637 232.416 323.983 233.172C323.664 233.518 323.274 233.788 322.839 233.968C322.404 234.146 321.936 234.228 321.466 234.206H316.695V223.37H321.447C321.918 223.348 322.388 223.43 322.823 223.612C323.258 223.793 323.648 224.068 323.964 224.418C324.62 225.165 324.96 226.137 324.914 227.13L324.933 230.44Z" fill="white"/>
<path d="M465.326 72.9233V162.422L430.972 72.9233H420.274V193.594H431.942V104L466.37 193.594H476.988V72.9233H465.326Z" fill="white"/>
<path d="M391.754 193.594H379.682V72.9233H391.754V193.594Z" fill="white"/>
<path d="M334.959 72.9233H322.091L295.862 193.594H308.334L313.491 169.459H343.495L348.644 193.594H361.116L334.959 72.9233ZM315.733 157.388L328.521 94.9415L341.237 157.388H315.733Z" fill="white"/>
<path d="M299.848 264.084C294.89 259.1 294.058 253.668 296.797 247.146C302.178 234.328 293.124 220.376 279.512 220.891C273.226 221.112 269.87 218.328 267.456 213.099C260.32 197.656 253.275 182.205 245.937 166.816C245.096 165.188 244.587 163.408 244.442 161.581C244.297 159.754 244.517 157.916 245.09 156.175C252.055 132.694 258.893 109.184 265.606 85.6467V193.583H277.269V72.9233H265.621C255.926 94.9401 246.238 116.961 236.559 138.985H235.205L206.184 73.0035H206.142V72.9309H194.494V193.594H206.142V85.8489C212.794 109.156 219.491 132.425 226.486 155.645C227.695 159.631 227.695 162.872 225.86 166.683C218.522 182.019 211.493 197.542 204.285 212.942C201.31 219.335 198.751 220.952 193.697 220.265C189.462 219.581 185.121 220.39 181.416 222.554C177.686 224.727 174.812 228.11 173.269 232.142C171.719 236.202 171.585 240.666 172.888 244.812C174.174 248.942 176.831 252.512 180.421 254.926C184.006 257.348 188.317 258.456 192.626 258.066C196.934 257.676 200.976 255.81 204.067 252.784C210.513 246.38 211.833 236.718 206.699 228.969C204.468 225.605 204.296 222.866 206.379 219.651C213.869 208.114 221.192 196.489 228.87 185.093C233.198 178.678 237.76 178.75 242.684 184.711C242.983 185.082 243.259 185.471 243.511 185.875C250.518 196.775 257.52 207.694 264.61 218.557C266.857 221.989 267.254 224.659 264.389 228.473C255.548 240.242 262.921 258.184 277.391 258.184C285.488 258.184 290.233 260.412 294.821 266.326C296.472 268.482 298.83 271.09 303.414 269.522C302.094 267.482 301.259 265.5 299.848 264.084ZM203.648 244.16C202.997 245.832 202.026 247.36 200.791 248.66C199.56 249.952 198.087 250.99 196.455 251.712C194.829 252.426 193.076 252.81 191.3 252.84C189.524 252.87 187.76 252.544 186.111 251.884C184.457 251.216 182.951 250.23 181.679 248.98C179.095 246.432 177.618 242.968 177.568 239.338C177.565 237.508 177.92 235.694 178.613 234C179.297 232.322 180.306 230.794 181.583 229.508C182.859 228.221 184.377 227.199 186.05 226.501C187.713 225.812 189.498 225.464 191.298 225.479C198.243 225.479 204.399 231.704 204.594 238.874C204.623 240.68 204.302 242.476 203.648 244.16ZM232.783 162.785C232.783 162.379 232.863 161.977 233.018 161.602C233.174 161.227 233.402 160.886 233.689 160.599C233.976 160.312 234.317 160.084 234.692 159.929C235.068 159.774 235.47 159.695 235.876 159.695C236.311 159.696 236.742 159.789 237.138 159.97L233.061 164.051C232.873 163.655 232.773 163.223 232.768 162.785H232.783ZM235.876 165.874C235.439 165.874 235.007 165.781 234.61 165.599L238.687 161.518C238.901 161.988 238.994 162.504 238.956 163.019C238.919 163.534 238.753 164.031 238.473 164.465C238.193 164.899 237.808 165.255 237.354 165.502C236.901 165.748 236.392 165.876 235.876 165.874ZM289.31 249.358C287.151 251.628 284.267 253.072 281.156 253.438C278.045 253.804 274.903 253.07 272.277 251.364C269.996 249.884 268.207 247.76 267.135 245.262C266.055 242.752 265.736 239.98 266.218 237.29C266.7 234.6 267.962 232.11 269.847 230.132C271.718 228.175 274.133 226.825 276.781 226.257C279.42 225.691 282.169 225.938 284.664 226.966C287.175 227.999 289.319 229.759 290.82 232.02C292.57 234.656 293.372 237.808 293.095 240.96C292.817 244.112 291.477 247.076 289.295 249.366L289.31 249.358Z" fill="white"/>
</g>
<defs>
<clipPath id="clip0_2305_1532">
<rect width="306" height="240" fill="white" transform="translate(172 30)"/>
</clipPath>
</defs>
</svg>
