<svg width="650" height="300" viewBox="0 0 650 300" fill="none" xmlns="http://www.w3.org/2000/svg">
<g clip-path="url(#clip0_2308_1561)">
<rect width="650" height="300" fill="black"/>
<rect width="650" height="300" fill="black"/>
<path d="M256.495 120.305H275.409V171.3H289.07V120.305H307.984V106.664H256.495V120.305Z" fill="white"/>
<path d="M382.378 106.664H382.168V157.659V171.3H395.828H429.874V157.659H395.828V145.698H429.874V132.057H395.828V120.305H429.874V106.664H395.828H382.378Z" fill="white"/>
<path d="M566.683 106.664L553.232 148.426L539.782 106.664H512.672V171.3H526.332V120.305H529.905L546.087 171.3H560.168L576.56 120.305H580.133V171.3H593.793V106.664H566.683Z" fill="white"/>
<path d="M457.823 106.664L437.018 171.51H451.518L454.461 162.276H488.086L491.028 171.51H505.319L484.513 106.664H457.823ZM483.673 148.636H458.874L467.911 120.515H474.636L483.673 148.636Z" fill="white"/>
<path d="M372.915 131.427C372.915 117.577 364.088 106.664 352.95 106.664H317.013V171.51H330.673V156.4H348.957L357.153 171.51H372.705L362.827 153.252C369.132 148.845 372.915 140.451 372.915 131.427ZM330.673 120.305H352.95C355.892 120.305 359.255 125.132 359.255 131.427C359.255 137.723 355.892 142.55 352.95 142.55H330.673V120.305Z" fill="white"/>
<path d="M239.045 131.427H212.775C212.145 131.427 210.463 129.539 210.463 125.971C210.463 122.403 212.355 120.515 212.775 120.515H241.567L247.661 106.874H212.775C203.738 106.874 196.593 115.268 196.593 126.181C196.593 136.884 203.738 145.488 212.775 145.488H239.045C240.096 145.488 242.407 148.216 242.407 152.833C242.407 157.45 240.096 160.178 239.045 160.178H210.253C209.202 160.178 206.891 157.45 206.891 152.833V152.413H193.23V152.833C193.23 164.585 200.796 173.818 210.253 173.818H239.045C248.712 173.818 256.278 164.585 256.278 152.833C256.068 140.661 248.502 131.427 239.045 131.427Z" fill="white"/>
<path d="M104.757 134.575V153.463C104.757 154.932 98.6621 159.758 87.3136 159.758C75.965 159.758 69.6603 155.141 69.6603 153.672V106.665H56V153.672C56 165.005 69.4501 173.609 87.1034 173.609C104.967 173.609 118.207 165.005 118.207 153.672V84L94.459 137.513L104.757 134.575Z" fill="#95C11F"/>
<path d="M165.285 106.664H129.138V171.51H142.798V156.4H165.075C176.213 156.4 185.04 145.488 185.04 131.637C185.25 117.577 176.423 106.664 165.285 106.664ZM165.285 142.55H143.008V120.305H165.285C168.227 120.305 171.59 125.131 171.59 131.427C171.59 137.723 168.017 142.55 165.285 142.55Z" fill="#95C11F"/>
<path d="M398.768 189.348H394.775C393.514 189.348 392.674 189.558 392.253 189.978C391.833 190.397 391.413 191.237 391.413 192.286V195.434H397.507V198.582H391.413V215.37H387.419V198.582H383.847V195.644L387.419 195.434V191.866C387.419 189.978 387.84 188.509 388.891 187.459C389.731 186.41 391.413 185.99 393.514 185.99C396.036 185.99 397.928 185.99 399.189 186.2L398.768 189.348Z" fill="#95C11F"/>
<path d="M401.706 198.582L401.286 195.644C404.859 195.014 408.011 194.804 410.954 194.804C413.476 194.804 415.157 195.224 416.208 196.273C417.259 197.323 417.889 199.001 417.889 201.31V215.16H414.737L414.316 212.013C412.005 214.321 409.483 215.58 406.33 215.58C404.439 215.58 402.967 215.16 401.917 214.111C400.866 213.062 400.235 211.803 400.235 209.914V207.815C400.235 206.346 400.656 205.087 401.706 204.248C402.757 203.408 404.018 202.989 405.91 202.989H413.896V201.52C413.896 200.261 413.686 199.421 413.055 199.001C412.425 198.582 411.374 198.372 409.903 198.372C408.642 198.162 405.91 198.372 401.706 198.582ZM404.439 208.445V209.494C404.439 210.544 404.649 211.173 405.069 211.593C405.489 212.013 406.33 212.222 407.171 212.222C409.483 212.222 411.794 211.383 413.896 209.494V205.927H406.54C405.7 205.927 405.069 206.137 404.649 206.556C404.649 206.976 404.439 207.606 404.439 208.445Z" fill="#95C11F"/>
<path d="M425.244 186.83H427.136C427.977 186.83 428.187 187.25 428.187 187.879V190.188C428.187 191.027 427.766 191.447 427.136 191.447H425.244C424.404 191.447 424.194 191.027 424.194 190.188V187.879C423.983 187.25 424.404 186.83 425.244 186.83ZM427.977 215.161H423.983V195.434H427.977V215.161Z" fill="#95C11F"/>
<path d="M445.423 212.013L445.843 215.16C444.582 215.58 443.111 215.79 441.219 215.79C439.538 215.79 438.277 215.37 437.436 214.321C436.596 213.272 436.175 212.013 436.175 210.124V198.582H432.603V195.644L436.175 195.434V189.558H440.168V195.434H446.263V198.582H440.168V209.704C440.168 210.544 440.379 211.383 440.799 211.593C441.219 212.013 441.85 212.222 442.901 212.222H445.423V212.013Z" fill="#95C11F"/>
<path d="M454.247 186.83V194.595C454.247 195.854 454.247 197.323 454.037 198.372C457.189 196.064 460.132 195.014 462.654 195.014C464.335 195.014 465.806 195.434 466.647 196.483C467.487 197.323 468.118 198.792 468.118 200.681V215.58H464.125V201.73C464.125 200.471 463.915 199.631 463.494 199.212C463.074 198.792 462.443 198.582 461.603 198.582C460.552 198.582 459.501 198.792 458.45 199.212C457.399 199.631 455.928 200.471 454.247 201.52V215.58H450.254V186.83H454.247Z" fill="#95C11F"/>
<path d="M484.088 186.83H485.979C486.82 186.83 487.03 187.25 487.03 187.879V190.188C487.03 191.027 486.61 191.447 485.979 191.447H484.088C483.247 191.447 483.037 191.027 483.037 190.188V187.879C483.037 187.25 483.457 186.83 484.088 186.83ZM487.03 215.161H483.037V195.434H487.03V215.161Z" fill="#95C11F"/>
<path d="M496.697 195.434L496.907 198.582C500.059 196.273 503.002 195.014 505.734 195.014C507.415 195.014 508.886 195.434 509.727 196.483C510.568 197.323 510.988 198.792 510.988 200.68V215.58H506.995V201.73C506.995 200.471 506.785 199.631 506.364 199.211C505.944 198.792 505.314 198.582 504.473 198.582C503.422 198.582 502.371 198.792 501.32 199.211C500.27 199.631 498.798 200.471 497.117 201.52V215.58H493.124V195.434H496.697Z" fill="#95C11F"/>
<path d="M530.111 186.83V193.965C530.111 195.854 529.901 197.323 529.691 198.582C532.003 196.274 534.525 195.014 537.257 195.014C539.779 195.014 541.46 195.854 542.721 197.533C543.982 199.212 544.402 201.73 544.402 205.507C544.402 209.075 543.772 211.803 542.511 213.482C541.25 215.161 538.938 216 535.575 216C532.003 216 528.85 215.58 526.328 214.531V186.83H530.111ZM530.111 201.1V211.803C531.792 212.223 533.474 212.432 535.365 212.432C537.257 212.432 538.518 211.803 539.148 210.754C539.779 209.704 540.199 207.816 540.199 205.087C540.199 202.359 539.779 200.681 539.358 199.631C538.728 198.582 537.467 198.162 535.786 198.162C534.945 198.162 533.894 198.372 533.053 198.792C532.213 199.421 531.162 200.051 530.111 201.1Z" fill="#95C11F"/>
<path d="M549.662 198.582L549.241 195.644C552.814 195.014 555.967 194.804 558.909 194.804C561.431 194.804 563.112 195.224 564.163 196.273C565.214 197.323 565.844 199.001 565.844 201.31V215.16H562.692L562.271 212.013C559.96 214.321 557.438 215.58 554.285 215.58C552.394 215.58 550.923 215.16 549.872 214.111C548.821 213.062 548.19 211.803 548.19 209.914V207.815C548.19 206.346 548.611 205.087 549.662 204.248C550.712 203.408 551.973 202.989 553.865 202.989H561.851V201.52C561.851 200.261 561.641 199.421 561.01 199.001C560.38 198.582 559.329 198.372 557.858 198.372C556.597 198.162 553.865 198.372 549.662 198.582ZM552.394 208.445V209.494C552.394 210.544 552.604 211.173 553.024 211.593C553.445 212.013 554.285 212.222 555.126 212.222C557.438 212.222 559.749 211.383 561.851 209.494V205.927H554.495C553.655 205.927 553.024 206.137 552.604 206.556C552.604 206.976 552.394 207.606 552.394 208.445Z" fill="#95C11F"/>
<path d="M573.198 186.83H575.09C575.93 186.83 576.14 187.25 576.14 187.879V190.188C576.14 191.027 575.72 191.447 575.09 191.447H573.198C572.357 191.447 572.147 191.027 572.147 190.188V187.879C571.937 187.25 572.357 186.83 573.198 186.83ZM576.14 215.161H572.147V195.434H576.14V215.161Z" fill="#95C11F"/>
<path d="M593.37 212.013L593.79 215.16C592.529 215.58 591.058 215.79 589.167 215.79C587.485 215.79 586.224 215.37 585.384 214.321C584.543 213.272 584.123 212.013 584.123 210.124V198.582H580.34V195.644L583.913 195.434V189.558H587.906V195.434H594.001V198.582H587.906V209.704C587.906 210.544 588.116 211.383 588.536 211.593C588.957 212.013 589.587 212.222 590.638 212.222H593.37V212.013Z" fill="#95C11F"/>
</g>
<defs>
<clipPath id="clip0_2308_1561">
<rect width="650" height="300" fill="white"/>
</clipPath>
</defs>
</svg>
